HIERARCHY
ROOT Hips
{
	OFFSET	0.00	0.00	0.00
	CHANNELS 6 Xposition Yposition Zposition Zrotation Xrotation Yrotation
	JOINT Chest
	{
		OFFSET	0.000000	6.275751	0.000000
		CHANNELS 3 Zrotation Xrotation Yrotation
		JOINT Neck
		{
			OFFSET	0.000000	14.296947	0.000000
			CHANNELS 3 Zrotation Xrotation Yrotation
			JOINT Head
			{
				OFFSET	0.000000	2.637461	0.000000
				CHANNELS 3 Zrotation Xrotation Yrotation
				End Site
				{
					OFFSET	0.000000	4.499004	0.000000
				}
			}
		}
		JOINT LeftCollar
		{
			OFFSET	1.120000	11.362855	1.870000
			CHANNELS 3 Zrotation Xrotation Yrotation
			JOINT LeftUpArm
			{
				OFFSET	4.565688	2.019026	-1.821179
				CHANNELS 3 Zrotation Xrotation Yrotation
				JOINT LeftLowArm
				{
					OFFSET	0.219729	-10.348825	-0.061708
					CHANNELS 3 Zrotation Xrotation Yrotation
					JOINT LeftHand
					{
						OFFSET	0.087892	-10.352228	2.178217
						CHANNELS 3 Zrotation Xrotation Yrotation
						End Site
						{
							OFFSET	0.131837	-6.692379	1.711456
						}
					}
				}
			}
		}
		JOINT RightCollar
		{
			OFFSET	-1.120000	11.362855	1.870000
			CHANNELS 3 Zrotation Xrotation Yrotation
			JOINT RightUpArm
			{
				OFFSET	-4.708080	2.034554	-1.821179
				CHANNELS 3 Zrotation Xrotation Yrotation
				JOINT RightLowArm
				{
					OFFSET	-0.263676	-10.428555	-0.061708
					CHANNELS 3 Zrotation Xrotation Yrotation
					JOINT RightHand
					{
						OFFSET	0.000000	-10.255345	2.178217
						CHANNELS 3 Zrotation Xrotation Yrotation
						End Site
						{
							OFFSET	-0.140882	-6.671274	1.711456
						}
					}
				}
			}
		}
	}
	JOINT LeftUpLeg
	{
		OFFSET	3.910000	0.000000	0.000000
		CHANNELS 3 Zrotation Xrotation Yrotation
		JOINT LeftLowLeg
		{
			OFFSET	-0.441177	-17.569450	1.695613
			CHANNELS 3 Zrotation Xrotation Yrotation
			JOINT LeftFoot
			{
				OFFSET	-0.043946	-17.197315	-1.478076
				CHANNELS 3 Zrotation Xrotation Yrotation
				End Site
				{
					OFFSET	0.000000	-3.933155	5.233925
				}
			}
		}
	}
	JOINT RightUpLeg
	{
		OFFSET	-3.910000	0.000000	0.000000
		CHANNELS 3 Zrotation Xrotation Yrotation
		JOINT RightLowLeg
		{
			OFFSET	0.437741	-17.622387	1.695613
			CHANNELS 3 Zrotation Xrotation Yrotation
			JOINT RightFoot
			{
				OFFSET	0.000000	-17.140001	-1.478076
				CHANNELS 3 Zrotation Xrotation Yrotation
				End Site
				{
					OFFSET	0.000000	-4.038528	5.233925
				}
			}
		}
	}
}
MOTION
Frames: 12
Frame Time: 0.04166667
-51.509220	5.051904	-9.129420	-4.412199	-0.173500	-8.177079	17.740835	1.327963	1.454597	-12.720513	6.194588	14.451111	-11.236085	-6.419271	-4.588340	-16.259626	-6.330300	1.121667	17.871140	4.086336	-16.061914	-2.529238	5.315402	1.832096	-18.466743	3.089626	-3.860005	0.290383	16.079876	-1.292209	-28.417961	-36.924786	22.923727	-8.280233	10.275692	1.794685	-3.803439	2.424136	-0.815245	2.315505	-11.919562	11.613775	-2.004031	-9.182150	-7.601107	-4.811609	4.840889	0.703359	5.363491	20.612577	-19.270565	2.220198	-9.151310	8.719961	-3.665249	-8.828359	4.830821	
-51.503044	4.803047	-7.814565	-4.941196	-0.095979	-8.910568	18.845552	1.327288	1.764623	-13.226260	6.161294	15.546566	-11.332220	-6.313063	-4.608233	-16.329262	-7.530093	1.296412	16.873304	7.126052	-17.665449	-3.754713	5.754503	2.412038	-15.167743	2.886716	-3.187702	-0.586434	15.913773	-0.670452	-27.809164	-37.601593	21.579586	-7.688668	9.466637	2.296774	-5.541048	2.454444	-1.186757	2.260020	-12.742989	19.741255	-2.479555	-9.120281	-12.860165	-2.626400	-2.338944	-0.012333	5.152185	22.595146	-17.652451	2.154472	-9.157991	7.984479	-3.057436	-9.561129	4.819493	
-51.479740	4.595346	-6.460905	-5.260391	-0.024196	-9.498198	19.144781	1.082539	1.971714	-13.150354	6.203261	16.170555	-11.155178	-6.439410	-4.558238	-15.965897	-8.529552	1.377481	16.211824	9.836085	-21.605669	-5.760388	6.407691	3.567277	-13.759075	2.811948	-2.897410	-1.335720	14.567868	0.493860	-26.566336	-36.231838	21.577602	-7.295866	8.369143	2.779102	-3.626678	2.421745	-0.777388	1.657773	-12.158689	24.977058	-2.359734	-9.139500	-11.517858	-2.865142	-3.597819	-0.057870	4.667441	24.520159	-15.991589	2.068239	-9.168993	7.034067	-2.277966	-9.603816	4.863781	
-51.468399	4.437037	-5.062449	-5.240736	-0.035920	-9.434642	18.419641	0.491980	1.789898	-12.523848	6.331776	16.399427	-10.667646	-7.004029	-4.455967	-15.244385	-8.987886	1.373001	15.805642	11.852048	-26.966482	-7.603981	6.901606	5.008184	-2.456573	2.473799	-0.521918	-1.747600	12.384007	2.018840	-24.794657	-32.974483	20.078104	-6.420608	5.860675	3.192661	-3.815565	2.424306	-0.817817	2.065798	-14.399421	28.340895	-2.511576	-2.653880	-9.296171	3.200728	0.229322	-0.512045	3.928365	26.410084	-14.379142	1.960726	-9.176348	5.854164	-1.422051	-8.432942	4.943996	
-51.452023	4.328246	-3.606027	-5.014455	-0.187187	-8.593040	17.110672	-0.202316	1.414246	-11.655015	6.441863	15.911568	-10.079778	-7.964829	-4.367577	-15.216366	-8.056849	1.340965	16.468409	12.308008	-32.630241	-9.279943	6.974822	6.464113	-7.038289	2.554370	-1.492222	-0.658930	12.094865	2.301314	-24.272093	-30.982224	19.197315	-6.188056	4.302680	3.543865	-5.220710	2.448070	-1.118374	4.004704	-18.460123	30.599306	-2.868445	8.292646	-8.005714	7.951186	2.320246	-1.312193	2.838497	26.688780	-13.071341	1.885856	-5.826718	4.223280	-0.641480	-7.341027	4.986614	
-51.400703	4.328527	-2.097398	-4.406905	-0.911931	-7.462331	15.526259	-0.286391	0.901265	-11.118725	6.364923	15.161799	-9.624436	-9.061111	-4.341857	-15.660959	-6.754642	1.479729	17.567539	11.811199	-35.068707	-10.489420	7.089474	7.539072	-9.310327	2.622900	-1.970411	0.723532	12.974753	2.058029	-24.330030	-29.797527	18.163996	-5.979320	3.382587	3.647160	-5.213708	2.447927	-1.116795	3.676008	-18.712896	27.341177	-2.507984	12.231227	-5.279470	7.226046	5.557193	-1.622439	0.015225	21.204458	-10.654381	1.838150	9.764716	1.635251	0.535625	-9.581641	5.030937	
-51.293423	4.455383	-0.625607	-3.215532	-1.979262	-6.241130	13.418225	0.355172	0.755354	-10.651405	6.014082	14.084809	-9.428606	-9.893058	-4.381204	-16.050928	-5.229380	1.800814	18.757944	10.214596	-36.087269	-11.190601	7.359260	8.099026	-9.239175	2.620465	-1.955467	2.131231	14.114562	1.398384	-24.326817	-29.046347	18.617449	-5.978443	3.710945	3.603670	-5.590793	2.455534	-1.197352	1.486304	-16.568779	24.574078	-2.328280	13.463464	-4.301560	8.277975	4.341761	-1.656324	-2.339015	15.721353	-7.148572	1.500171	23.433792	-2.361340	2.526446	-5.740986	4.978448	
-51.142906	4.610750	0.724823	-2.133031	-2.476703	-4.974943	11.863768	0.958885	0.949719	-10.430470	5.404411	13.172282	-9.724574	-10.358092	-4.595490	-16.255854	-3.943142	2.277612	19.446667	8.058552	-37.193947	-11.229589	7.240144	8.176344	-9.699639	2.636605	-2.052042	3.099674	15.183295	0.376337	-24.046957	-28.914612	19.608505	-6.822878	6.577555	3.288887	-4.370243	2.432852	-0.936505	-0.459451	-14.264554	22.960857	-2.301412	13.663797	-4.301599	8.114738	2.598413	-1.375850	-4.335174	8.365680	-5.359353	1.298822	36.966160	-3.159633	3.100787	2.432657	4.529793	
-50.947571	4.731754	1.942861	-1.509318	-2.596449	-4.037987	11.375644	1.747169	1.281699	-10.602307	4.565322	12.984771	-10.454276	-10.314214	-4.940182	-16.169998	-3.494317	2.902297	19.258991	6.001016	-37.129604	-10.732691	6.988031	7.764647	-9.238643	2.620470	-1.955358	3.310968	16.053457	-0.769639	-23.342417	-28.958319	22.093372	-7.309485	8.501963	2.637539	-1.991154	2.404479	-0.427026	-1.865378	-12.446623	21.350370	-2.217879	13.895409	-3.831018	8.071807	0.722050	-1.099286	-5.609972	0.074669	-3.636440	1.078338	48.678539	-2.310539	2.874703	13.289201	4.033350	
-50.730789	4.822359	3.080010	-1.107281	-2.827737	-3.885012	11.127169	2.687503	2.094866	-10.607959	4.137905	13.468231	-11.584221	-10.008087	-5.429694	-15.994664	-3.076872	3.137842	18.803230	3.957201	-36.219433	-9.882591	6.712502	7.013405	-7.425628	2.564622	-1.573952	3.285357	16.235197	-1.257481	-22.740404	-27.871380	23.175436	-7.730505	9.104263	1.997291	-4.463454	2.434380	-0.956429	-2.755304	-10.519304	21.104704	-2.249632	14.184916	-3.878522	8.050478	-1.146951	-0.827675	-6.135437	-7.200773	-2.133847	0.549046	56.165012	-3.016683	1.643824	24.998760	4.142095	
-50.529701	4.922489	4.150937	-0.757887	-3.097657	-3.723410	10.713088	3.461907	2.734666	-10.312951	4.116251	14.134587	-12.594831	-9.468956	-5.805864	-15.980894	-2.266369	3.006979	18.696003	1.466437	-35.868546	-8.998417	6.348836	6.252847	-5.178171	2.512303	-1.099074	3.544141	16.140068	-1.322221	-23.070717	-25.884615	25.054380	-7.675921	8.108896	1.650794	-2.923980	2.413102	-0.626909	-3.552089	-8.223270	21.735788	-2.422977	13.730472	-4.770772	8.152641	-2.583080	-0.625861	-5.882222	-13.070814	-0.257201	-0.722072	61.771725	-6.586840	2.859917	28.408442	3.363889	
-50.355793	5.035997	5.159691	-0.661668	-3.233294	-2.468702	10.403764	3.932241	2.629886	-9.673741	4.202354	14.405286	-13.328890	-8.916739	-6.033799	-15.904487	-1.379788	2.718999	18.928394	-1.593305	-39.479366	-8.488223	5.604037	5.944124	-4.741007	2.504217	-1.006477	4.308011	16.093636	-1.824619	-23.848387	-24.252211	27.382252	-6.996025	7.169016	1.593835	-3.781177	2.423855	-0.810495	-4.205264	-5.782230	21.374254	-2.608844	12.595079	-5.907344	8.519901	-3.947051	-0.438001	-5.368253	-17.745049	-0.338892	-2.006950	65.429298	-9.290439	-1.017358	24.783968	5.526416	
